#!OML:ASF G:\ViconDB\ViconDB\414\test\team2\shane.ASF
:FULLY-SPECIFIED
:DEGREES
322
root 2.46225 16.9203 27.1971 -10.8296 8.99528 -4.86996
lowerback 9.82452 -0.774229 -1.24635
upperback 3.69502 -1.08018 2.21772
thorax -1.60072 -0.55508 3.11724
lowerneck -14.7918 -0.809783 -7.12346
upperneck 20.9355 -1.62645 9.80878
head 9.13232 -0.263175 4.39457
rclavicle 4.47856e-014 1.92821e-014
rhumerus -40.0757 0.226571 -84.7734
rradius 25.2201
rwrist 42.4533
rhand -28.343 -12.7913
rfingers 7.12502
rthumb -1.71719 -42.7641
lclavicle 4.47856e-014 1.92821e-014
lhumerus -25.275 -30.2141 98.8503
lradius 20.3881
lwrist -14.0788
lhand -36.9369 9.00742
lfingers 7.12502
lthumb -10.0138 38.7492
rfemur -10.3933 -17.317 16.6597
rtibia 52.472
rfoot -17.6089 -0.315054
rtoes -14.5621
lfemur 12.5106 9.31109 -10.9455
ltibia 17.5598
lfoot -24.2278 -24.3733
ltoes -4.63707
323
root 2.47706 16.9093 27.3677 -10.7197 9.33531 -4.98668
lowerback 9.69157 -0.951341 -1.4344
upperback 3.68804 -1.32979 2.33775
thorax -1.51129 -0.682939 3.37224
lowerneck -14.7816 -0.698752 -7.05577
upperneck 20.9495 -1.47658 9.75408
head 9.11962 -0.193678 4.38156
rclavicle 4.47856e-014 1.92821e-014
rhumerus -40.0757 0.226571 -84.7734
rradius 25.2201
rwrist 42.4533
rhand -28.343 -12.7913
rfingers 7.12502
rthumb -1.71719 -42.7641
lclavicle -1.58717e-015 -1.46107e-014
lhumerus -23.7787 -29.9495 98.5057
lradius 20.9081
lwrist -13.849
lhand -37.4507 8.81204
lfingers 7.12502
lthumb -10.5094 38.5293
rfemur -11.2744 -17.7203 17.249
rtibia 49.9577
rfoot -17.816 -0.364192
rtoes -14.9651
lfemur 13.5057 9.03752 -10.7557
ltibia 16.3719
lfoot -23.9711 -24.5504
ltoes -4.74985
324
root 2.49185 16.9054 27.5402 -10.667 9.62846 -4.98425
lowerback 9.71267 -1.03671 -1.56705
upperback 3.64563 -1.45308 2.41587
thorax -1.55246 -0.744795 3.54301
lowerneck -14.8176 -0.694473 -7.27291
upperneck 21.0527 -1.40269 9.67873
head 9.15526 -0.183427 4.40494
rclavicle 5.6576e-015 -5.01931e-015
rhumerus -41.2236 -3.06824 -81.4777
rradius 23.8464
rwrist 45.6605
rhand -28.3611 -12.8747
rfingers 7.12502
rthumb -1.73466 -42.8474
lclavicle 5.6576e-015 -5.01931e-015
lhumerus -22.2403 -29.0382 98.0704
lradius 21.1951
lwrist -15.5185
lhand -37.6075 8.46482
lfingers 7.12502
lthumb -10.6607 38.1744
rfemur -11.9388 -17.7129 17.6725
rtibia 47.1452
rfoot -17.89 -0.332225
rtoes -16.2554
lfemur 14.5342 8.74022 -10.6759
ltibia 15.3272
lfoot -23.8498 -24.63
ltoes -4.86473
325
root 2.51343 16.911 27.7159 -10.5307 9.87934 -5.08739
lowerback 9.48452 -1.15421 -1.54997
upperback 3.66588 -1.60529 2.50202
thorax -1.39288 -0.824014 3.63198
lowerneck -14.7582 -0.646383 -7.2523
upperneck 20.8764 -1.33152 9.67105
head 9.0763 -0.15119 4.40039
rclavicle -1.76546e-014 2.93207e-015
rhumerus -41.7511 -4.19426 -80.1291
rradius 23.2545
rwrist 46.4388
rhand -28.4733 -13.0428
rfingers 7.12502
rthumb -1.84301 -43.0146
lclavicle -1.76546e-014 2.93207e-015
lhumerus -20.9459 -29.209 97.9621
lradius 21.8959
lwrist -15.2689
lhand -38.0329 8.76534
lfingers 7.12502
lthumb -11.071 38.4533
rfemur -12.6651 -17.5805 18.1069
rtibia 44.1953
rfoot -17.9654 0.335768
rtoes -14.0929
lfemur 15.4974 8.41296 -10.5587
ltibia 14.1874
lfoot -23.5787 -24.6678
ltoes -5.20315
326
root 2.53171 16.8969 27.8923 -10.4199 10.092 -5.15096
lowerback 9.44209 -1.2735 -1.53022
upperback 3.56738 -1.76074 2.51602
thorax -1.46032 -0.899608 3.65169
lowerneck -14.8904 -0.57975 -7.34956
upperneck 21.2051 -1.23385 9.70679
head 9.20497 -0.105624 4.45412
rclavicle -2.48636e-014 -9.83984e-015
rhumerus -41.7511 -4.19426 -80.1291
rradius 23.2545
rwrist 46.4388
rhand -28.4733 -13.0428
rfingers 7.12502
rthumb -1.84301 -43.0146
lclavicle -2.48636e-014 -9.83984e-015
lhumerus -19.9347 -29.1957 97.8416
lradius 22.5254
lwrist -14.8394
lhand -38.901 8.23539
lfingers 7.12502
lthumb -11.9082 37.8767
rfemur -13.2433 -17.7837 18.6215
rtibia 41.1595
rfoot -18.0524 0.660151
rtoes -14.9903
lfemur 16.6358 8.10408 -10.4466
ltibia 12.8007
lfoot -23.2627 -24.6875
ltoes -5.27102
327
root 2.54476 16.8838 28.0717 -10.2703 10.2881 -5.07016
lowerback 9.32387 -1.33751 -1.79544
upperback 3.50845 -1.86678 2.60029
thorax -1.43629 -0.954669 3.89765
lowerneck -14.9583 -0.471617 -7.232
upperneck 21.2975 -1.03867 9.39087
head 9.22909 -0.0372034 4.34896
rclavicle 3.98765e-014 5.32991e-015
rhumerus -43.1727 -6.87247 -77.0036
rradius 22.4953
rwrist 48.8264
rhand -28.0423 -12.9625
rfingers 7.12502
rthumb -1.42674 -42.9374
lclavicle 3.98765e-014 5.32991e-015
lhumerus -18.8822 -28.829 97.7145
lradius 23.25
lwrist -15.7711
lhand -38.8994 8.48604
lfingers 7.12502
lthumb -11.9067 38.1275
rfemur -13.8423 -18.1096 18.9365
rtibia 38.1726
rfoot -18.4237 1.74585
rtoes -14.5681
lfemur 17.8758 7.97422 -10.3924
ltibia 11.2337
lfoot -22.7797 -24.8858
ltoes -5.45517
328
root 2.56219 16.8732 28.2529 -10.0562 10.5068 -4.9703
lowerback 9.06807 -1.45458 -2.09447
upperback 3.4496 -2.04445 2.71411
thorax -1.32639 -1.04767 4.19542
lowerneck -14.865 -0.425645 -7.58291
upperneck 21.2404 -0.928169 9.56172
head 9.18199 0.00228963 4.4797
rclavicle 5.23347e-014 -4.23163e-014
rhumerus -43.1727 -6.87247 -77.0036
rradius 22.4953
rwrist 48.8264
rhand -28.0423 -12.9625
rfingers 7.12502
rthumb -1.42674 -42.9374
lclavicle 5.23347e-014 -4.23163e-014
lhumerus -17.9859 -28.7111 97.7661
lradius 24.0675
lwrist -15.6695
lhand -39.4679 8.4044
lfingers 7.12502
lthumb -12.4548 38.0133
rfemur -14.5102 -18.5356 19.2421
rtibia 35.3341
rfoot -18.902 2.96245
rtoes -14.8416
lfemur 19.0762 7.76843 -10.4228
ltibia 9.60439
lfoot -22.2414 -24.9657
ltoes -5.46791
329
root 2.58259 16.8544 28.4397 -10.0878 10.4502 -5.05818
lowerback 9.01026 -1.50884 -1.98164
upperback 3.43585 -2.1066 2.71715
thorax -1.30767 -1.07828 4.13868
lowerneck -14.9658 -0.325102 -7.31007
upperneck 21.4002 -0.811141 9.35806
head 9.2437 0.0594082 4.38121
rclavicle 2.31553e-014 -3.11098e-014
rhumerus -44.598 -8.5623 -74.4852
rradius 22.0659
rwrist 49.5252
rhand -27.945 -12.8687
rfingers 7.12502
rthumb -1.33282 -42.8443
lclavicle 2.31553e-014 -3.11098e-014
lhumerus -17.3989 -29.2727 97.7661
lradius 25.1482
lwrist -14.4908
lhand -40.1335 8.40335
lfingers 7.12502
lthumb -13.0965 37.9721
rfemur -15.0012 -19.1103 19.7347
rtibia 32.8319
rfoot -19.3805 4.59308
rtoes -15.8504
lfemur 20.8775 7.74166 -10.1514
ltibia 7.31839
lfoot -21.5211 -25.0266
ltoes -6.00965
330
root 2.593 16.8373 28.6214 -9.95417 10.7868 -4.91213
lowerback 9.02542 -1.6108 -2.25699
upperback 3.3236 -2.26421 2.75524
thorax -1.40562 -1.15575 4.35265
lowerneck -14.7199 -0.427189 -7.71712
upperneck 21.1413 -0.905441 9.58144
head 9.1186 0.000935187 4.50696
rclavicle -9.24349e-015 -6.85807e-015
rhumerus -45.4548 -9.44118 -72.994
rradius 21.8074
rwrist 51.271
rhand -28.1892 -12.8347
rfingers 7.12502
rthumb -1.56865 -42.8087
lclavicle -9.24349e-015 -6.85807e-015
lhumerus -16.8388 -29.147 97.826
lradius 26.1759
lwrist -14.7328
lhand -40.5274 7.92634
lfingers 7.12502
lthumb -13.4761 37.4704
rfemur -15.7124 -19.9984 19.9388
rtibia 30.7819
rfoot -19.8316 6.07952
rtoes -16.5823
lfemur 23.1162 7.395 -10.2214
ltibia 3.53384
lfoot -19.6268 -25.1321
ltoes -6.32284
331
root 2.60797 16.8188 28.808 -9.88512 11.0179 -4.79591
lowerback 9.02161 -1.724 -2.48186
upperback 3.22351 -2.43302 2.78576
thorax -1.48033 -1.23872 4.53037
lowerneck -14.5024 -0.39987 -7.78702
upperneck 20.9579 -0.849115 9.56049
head 9.00928 0.0148604 4.50869
rclavicle 1.31943e-014 6.65929e-015
rhumerus -46.1773 -9.59501 -72.1819
rradius 21.8468
rwrist 50.89
rhand -27.8693 -12.9573
rfingers 7.12502
rthumb -1.25967 -42.9333
lclavicle 1.31943e-014 6.65929e-015
lhumerus -16.4304 -29.3412 97.8563
lradius 27.3444
lwrist -14.718
lhand -40.8424 8.31237
lfingers 7.12502
lthumb -13.7797 37.836
rfemur -16.4955 -21.538 20.2302
rtibia 29.2876
rfoot -20.1 8.30707
rtoes -15.6352
lfemur 25.3652 7.13051 -10.2382
ltibia -2.8625e-014
lfoot -17.9667 -25.2305
ltoes -6.66755
332
root 2.61789 16.8005 28.998 -9.85309 11.2116 -4.60765
lowerback 9.08851 -1.7731 -2.6931
upperback 3.12824 -2.51827 2.73539
thorax -1.60046 -1.27796 4.611
lowerneck -14.485 -0.42027 -7.88873
upperneck 21.0309 -0.876219 9.63966
head 9.034 0.00204385 4.55337
rclavicle 1.31943e-014 6.65929e-015
rhumerus -46.1773 -9.59501 -72.1819
rradius 21.8468
rwrist 50.89
rhand -27.8693 -12.9573
rfingers 7.12502
rthumb -1.25967 -42.9333
lclavicle 2.99544e-014 -3.03147e-015
lhumerus -16.0906 -29.4668 97.8691
lradius 28.3736
lwrist -15.0474
lhand -41.0262 8.16088
lfingers 7.12502
lthumb -13.9569 37.6724
rfemur -17.3967 -23.7318 20.5642
rtibia 28.4732
rfoot -20.6783 10.9741
rtoes -17.1649
lfemur 26.0517 6.90125 -10.2859
ltibia -4.77083e-014
lfoot -18.2694 -25.2587
ltoes -6.85412
333
root 2.63162 16.7813 29.1936 -9.8682 11.3632 -4.6506
lowerback 9.04522 -1.85563 -2.6614
upperback 3.06026 -2.62367 2.76842
thorax -1.63659 -1.32888 4.63755
lowerneck -14.4349 -0.395371 -7.93368
upperneck 21.0654 -0.833818 9.63208
head 9.03216 0.0164833 4.5638
rclavicle 3.08085e-014 -2.01766e-014
rhumerus -47.692 -9.60044 -70.9683
rradius 21.9115
rwrist 50.7404
rhand -27.5451 -12.8474
rfingers 7.12502
rthumb -0.946533 -42.825
lclavicle 3.08085e-014 -2.01766e-014
lhumerus -15.8284 -29.3789 97.8711
lradius 29.4947
lwrist -15.3988
lhand -41.4576 7.7395
lfingers 7.12502
lthumb -14.3726 37.2219
rfemur -18.4443 -26.6988 21.2546
rtibia 28.1525
rfoot -20.9214 14.5937
rtoes -16.5213
lfemur 26.7707 6.66175 -10.0785
ltibia 7.63333e-014
lfoot -18.7883 -25.3164
ltoes -7.37988
334
root 2.63811 16.7438 29.3896 -9.82093 11.6102 -4.62382
lowerback 8.9919 -1.95599 -2.82764
upperback 2.95766 -2.76952 2.82086
thorax -1.68803 -1.39995 4.801
lowerneck -14.3851 -0.363818 -7.96614
upperneck 21.0969 -0.777717 9.59285
head 9.02791 0.0349863 4.56235
rclavicle -3.55203e-014 6.36111e-015
rhumerus -48.3952 -9.51227 -70.4033
rradius 21.9869
rwrist 50.4758
rhand -27.2533 -12.6775
rfingers 7.12502
rthumb -0.664763 -42.6562
lclavicle -3.55203e-014 6.36111e-015
lhumerus -15.7548 -29.2827 97.9684
lradius 30.7456
lwrist -15.6464
lhand -41.6846 7.54368
lfingers 7.12502
lthumb -14.5913 37.0104
rfemur -19.5187 -29.5926 21.9144
rtibia 28.1678
rfoot -20.8952 18.15
rtoes -16.1178
lfemur 27.4137 6.3432 -9.95239
ltibia -4.77083e-014
lfoot -19.1353 -25.3646
ltoes -7.90508
335
root 2.64812 16.714 29.5868 -9.77382 11.8003 -4.57339
lowerback 8.89355 -2.00098 -2.88316
upperback 2.86563 -2.83205 2.83799
thorax -1.71908 -1.42923 4.85422
lowerneck -14.3361 -0.350913 -7.87398
upperneck 21.1636 -0.741864 9.38933
head 9.03793 0.0366721 4.48037
rclavicle 3.15198e-014 -9.83984e-015
rhumerus -49.0938 -9.52344 -69.8684
rradius 22.1021
rwrist 50.2285
rhand -27.1178 -12.5623
rfingers 7.12502
rthumb -0.533818 -42.5414
lclavicle 3.15198e-014 -9.83984e-015
lhumerus -15.6366 -29.4756 98.0313
lradius 31.7825
lwrist -15.9902
lhand -41.5825 7.28056
lfingers 7.12502
lthumb -14.4929 36.7544
rfemur -20.2436 -31.9141 22.4715
rtibia 28.345
rfoot -20.679 20.8355
rtoes -14.879
lfemur 28.082 6.08638 -9.85238
ltibia -4.77083e-014
lfoot -19.4662 -25.3664
ltoes -8.55139
